<svg xmlns="http://www.w3.org/2000/svg" viewBox="0 0 180 140" role="img" aria-labelledby="eage-title">
<title id="eage-title">EAGE</title>
<style>.st0{fill:#008F71}.st1{fill:#FFF}</style>
<path class="st0" d="M0 0h180v140H0z"/>
<path class="st1" d="M30.19 113.01v-9.26h5.54c3.81 0 5.54.77 6.56 4.34h3.18V97.43h-3.18c-.72 2.89-2.31 4.05-6.32 4.05h-5.79v-12.2h6.8c4.05 0 5.93.87 8.92 4.63h3.13v-6.89H17.41v2.27c3.28 0 4.29 1.3 4.29 3.91v20.3c0 3.09-1.3 4.15-4.29 4.15v2.27h32.35l1.45-8.15h-3.33c-4.19 4.92-6.89 5.88-11.48 5.88-5.24 0-6.21-1.69-6.21-4.63m43.21-9.26h-8.38l3.97-11.19 4.41 11.19zm17.05 13.89c-1.98 0-3.23-1.21-4.29-3.95L75.79 87.02h-9.02l1.11 2.27-9.45 24.06c-.92 2.31-1.78 3.66-5.06 4.29v2.27H64.7v-2.27c-3.09-.34-3.71-2.51-2.65-5.64l2.16-5.98h10.06l2.78 7.09c1.16 2.94.39 4.24-2.89 4.53v2.27h16.3v-2.27zm36.69-11.62v-2.27h-15.89v2.27c2.65 0 3.6 1.31 3.69 3.71v7.65c-1.22.58-2.47.89-4.01.89-6.99 0-11.14-5.64-11.14-15.24 0-9.31 3.52-14.42 9.88-14.42 4.73 0 9.11 3.86 11.19 8.82h2.56v-8.15c-2.89-1.83-8.5-2.94-13.45-2.94-12.63 0-19.48 8.39-19.48 17.7 0 10.27 7.28 16.49 19.19 16.49 4.35 0 10.76-1.02 13.76-2.18v-8.62c.1-2.4 1.05-3.35 3.7-3.71m29.79-12.11h3.13v-6.89h-31.63v2.27c3.28 0 4.29 1.3 4.29 3.91v20.3c0 3.09-1.3 4.15-4.29 4.15v2.27h32.35l1.45-8.15h-3.33c-4.19 4.92-6.89 5.88-11.48 5.88-5.26 0-6.22-1.69-6.22-4.63v-9.26h5.54c3.81 0 5.54.77 6.56 4.34h3.18V97.43h-3.18c-.72 2.89-2.31 4.05-6.32 4.05h-5.79v-12.2h6.8c4.07.01 5.95.87 8.94 4.63"/>
<path class="st1" d="M180 140H0V0h180v140zM1.97 138.03h176.06V0H1.97z"/>
</svg>
